<svg xmlns="http://www.w3.org/2000/svg" width="138.327" height="84.694" viewBox="0 0 138.327 84.694">
  <path id="Caminho_150" data-name="Caminho 150" d="M123.728,132.15H80.96a2.766,2.766,0,0,1,0-5.532h7.353V121.5H58.4a6.287,6.287,0,0,1-6.535-5.988V60.161A6.286,6.286,0,0,1,58.4,54.175h87.567a6.286,6.286,0,0,1,6.535,5.986v55.354a6.287,6.287,0,0,1-6.535,5.988H116.048v5.116h7.68a2.766,2.766,0,1,1,0,5.532M80.96,127.693a1.692,1.692,0,1,0,0,3.384h42.768a1.692,1.692,0,1,0,0-3.384Zm8.428-1.075h25.587v-5.064H89.388Zm45.069-6.191h11.507a5.215,5.215,0,0,0,5.462-4.913V60.161a5.216,5.216,0,0,0-5.462-4.913H58.4a5.216,5.216,0,0,0-5.462,4.913v55.354a5.215,5.215,0,0,0,5.462,4.913Zm-94.4,11.581H19.481a5.315,5.315,0,0,1-5.309-5.311V52.159a4.708,4.708,0,0,1,4.7-4.7H40.666a4.708,4.708,0,0,1,4.7,4.7V126.7a5.315,5.315,0,0,1-5.309,5.311M18.875,48.531a3.633,3.633,0,0,0-3.63,3.628V126.7a4.24,4.24,0,0,0,4.236,4.236H40.06A4.24,4.24,0,0,0,44.3,126.7V52.159a3.633,3.633,0,0,0-3.63-3.628Zm122.382,66.993H63.252a3.981,3.981,0,0,1-4.131-3.8L58.973,64.4A3.981,3.981,0,0,1,63.1,60.6H141.11a3.983,3.983,0,0,1,4.133,3.8l.146,47.322a3.981,3.981,0,0,1-4.131,3.8m-7.307-1.073h7.307a2.911,2.911,0,0,0,3.058-2.729L144.168,64.4a2.912,2.912,0,0,0-3.058-2.731H63.1A2.911,2.911,0,0,0,60.048,64.4l.146,47.322a2.912,2.912,0,0,0,3.058,2.731ZM29.892,113.009a4.7,4.7,0,1,1,4.7-4.7,4.7,4.7,0,0,1-4.7,4.7m0-8.325a3.626,3.626,0,1,0,3.624,3.626,3.631,3.631,0,0,0-3.624-3.626M38.122,77.02H21.21a3.963,3.963,0,0,1-3.959-3.959V66.277a3.963,3.963,0,0,1,3.959-3.959H38.122a3.964,3.964,0,0,1,3.959,3.959V73.06a3.964,3.964,0,0,1-3.959,3.959M21.21,63.391a2.889,2.889,0,0,0-2.886,2.886V73.06a2.889,2.889,0,0,0,2.886,2.886H38.122a2.889,2.889,0,0,0,2.886-2.886V66.277a2.889,2.889,0,0,0-2.886-2.886Z" transform="translate(-14.172 -47.456)" fill="#fff"/>
</svg>
