<svg id="Grupo_322" data-name="Grupo 322" xmlns="http://www.w3.org/2000/svg" xmlns:xlink="http://www.w3.org/1999/xlink" width="137.517" height="84.197" viewBox="0 0 137.517 84.197">
  <defs>
    <linearGradient id="linear-gradient" x1="0.052" y1="0.642" x2="0.867" y2="0.653" gradientUnits="objectBoundingBox">
      <stop offset="0" stop-color="#ca802d"/>
      <stop offset="1" stop-color="#98141a"/>
    </linearGradient>
    <clipPath id="clip-path">
      <path id="Caminho_157" data-name="Caminho 157" d="M30.591,108.176a3.6,3.6,0,1,1,3.6,3.6,3.609,3.609,0,0,1-3.6-3.6m-1.067,0A4.671,4.671,0,1,0,34.2,103.5a4.677,4.677,0,0,0-4.672,4.672M22.7,73.134V66.389a2.872,2.872,0,0,1,2.869-2.867H42.379a2.871,2.871,0,0,1,2.867,2.867v6.745A2.872,2.872,0,0,1,42.379,76H25.566A2.872,2.872,0,0,1,22.7,73.134m2.869-10.679a3.939,3.939,0,0,0-3.936,3.934v6.745a3.939,3.939,0,0,0,3.936,3.936H42.379a3.939,3.939,0,0,0,3.936-3.936V66.389a3.939,3.939,0,0,0-3.936-3.934ZM64.32,111.564l-.145-47.04a2.893,2.893,0,0,1,3.039-2.715h77.548a2.9,2.9,0,0,1,3.04,2.715l.145,47.042a2.891,2.891,0,0,1-3.039,2.713H67.359a2.891,2.891,0,0,1-3.039-2.715m2.894-50.822a3.959,3.959,0,0,0-4.107,3.782l.147,47.042a3.959,3.959,0,0,0,4.105,3.782h77.549a3.959,3.959,0,0,0,4.107-3.784l-.145-47.04a3.96,3.96,0,0,0-4.109-3.782Zm16.069,68.383a1.683,1.683,0,0,1,1.682-1.68h42.519a1.682,1.682,0,0,1,0,3.364H84.965a1.685,1.685,0,0,1-1.682-1.684m10.058-7.784H118.78v5.035H93.341Zm-36.237-6V60.31a5.184,5.184,0,0,1,5.43-4.884h87.051a5.184,5.184,0,0,1,5.432,4.884v55.028a5.185,5.185,0,0,1-5.432,4.884H62.535a5.186,5.186,0,0,1-5.43-4.884m5.43-60.979a6.249,6.249,0,0,0-6.5,5.951v55.028a6.249,6.249,0,0,0,6.5,5.951h29.74v5.087H84.965a2.75,2.75,0,0,0,0,5.5h42.519a2.75,2.75,0,0,0,0-5.5h-7.637V121.29h29.738a6.251,6.251,0,0,0,6.5-5.951V60.31a6.251,6.251,0,0,0-6.5-5.951Zm-42.9,72.1v-74.1a3.613,3.613,0,0,1,3.609-3.609H44.907a3.611,3.611,0,0,1,3.607,3.609v74.1a4.214,4.214,0,0,1-4.209,4.211H23.846a4.216,4.216,0,0,1-4.211-4.211M23.244,47.68a4.679,4.679,0,0,0-4.675,4.675v74.1a5.283,5.283,0,0,0,5.277,5.277H44.305a5.284,5.284,0,0,0,5.277-5.277v-74.1a4.679,4.679,0,0,0-4.675-4.675Z" transform="translate(-18.569 -47.68)" fill="url(#linear-gradient)"/>
    </clipPath>
  </defs>
  <g id="Grupo_321" data-name="Grupo 321" clip-path="url(#clip-path)">
    <rect id="Retângulo_168" data-name="Retângulo 168" width="160.372" height="135.218" transform="matrix(0.902, -0.431, 0.431, 0.902, -32.729, 15.621)" fill="url(#linear-gradient)"/>
  </g>
</svg>
