<svg xmlns="http://www.w3.org/2000/svg" width="198.238" height="27.382" viewBox="0 0 198.238 27.382">
  <g id="Grupo_459" data-name="Grupo 459" transform="translate(-239.945 -32.21)">
    <g id="Grupo_458" data-name="Grupo 458">
      <path id="Caminho_196" data-name="Caminho 196" d="M435.632,59.377a47.965,47.965,0,0,1-5-.037c-1.748-.183-2.274-1.116-1.933-2.826.667-3.343,1.339-6.688,1.987-10.035a3.838,3.838,0,0,0-3.922-4.837,5.929,5.929,0,0,0-6.252,5.052c-.68,4.135-1.564,8.237-2.377,12.349-.032.164-.231.416-.355.419-2.348.024-4.7.017-7.128.017.19-1.015.365-1.973.55-2.93.664-3.425,1.341-6.849,1.995-10.278A3.665,3.665,0,0,0,409.93,41.6a5.768,5.768,0,0,0-6.817,4.525q-.51,2.565-.995,5.14c-.345,1.834-.667,3.671-1.01,5.505a3.25,3.25,0,0,1-3.239,2.7c-.159.016-.321.009-.481.009H393.1c.279-1.52.542-2.99.821-4.459.532-2.8,1.047-5.6,1.616-8.39a9.579,9.579,0,0,1,6.725-7.663,23.538,23.538,0,0,1,13.935-.2,3.188,3.188,0,0,1,1.052.432,1.92,1.92,0,0,0,2.094.067,20.993,20.993,0,0,1,8.106-1.2,19.678,19.678,0,0,1,6,.827,6.366,6.366,0,0,1,4.18,3.284,6.933,6.933,0,0,1,.509,2.2c.221,2.382-.507,4.651-.937,6.951-.506,2.7-1.052,5.394-1.573,8.056"/>
      <path id="Caminho_197" data-name="Caminho 197" d="M360.366,59.464a17.246,17.246,0,0,1-6.139-.7c-2.575-.811-4.567-2.265-5.282-5.026a12.222,12.222,0,0,1,.291-6.366c1.452-5.338,5.134-8.166,10.427-9.054a23.141,23.141,0,0,1,10.679.461c2.787.846,4.794,2.538,5.337,5.539a12.6,12.6,0,0,1-8.947,14.428,18.9,18.9,0,0,1-6.366.721m3.73-17.735c-2.427-.023-4.035.591-5.26,1.965a9.89,9.89,0,0,0-2.4,8.826,3.686,3.686,0,0,0,2.722,3.013,5.8,5.8,0,0,0,5.824-1.328,10.238,10.238,0,0,0,3.117-8.051c-.048-2.848-1.744-4.425-4-4.425"/>
      <path id="Caminho_198" data-name="Caminho 198" d="M300.973,53.349A10.126,10.126,0,0,1,295.4,58.37a20.229,20.229,0,0,1-12.667.391c-3.926-1.128-5.615-3.6-5.572-7.681a14.85,14.85,0,0,1,1.517-6.391,10.545,10.545,0,0,1,5.917-5.465,19.83,19.83,0,0,1,13.053-.433,6.675,6.675,0,0,1,4.943,6.9c-.02,1.314-.3,2.623-.429,3.937-.05.5-.288.6-.749.594-5.485-.015-10.97,0-16.456-.025-.616,0-.831.177-.8.77a18.019,18.019,0,0,0,.056,1.921c.3,1.824,1.693,2.869,3.836,2.964a5.829,5.829,0,0,0,4.066-1.207,5.756,5.756,0,0,1,4.129-1.313c1.535.087,3.079.019,4.726.019M285.1,46.316a1.183,1.183,0,0,0,.213.066c3.234.005,6.467,0,9.7.018.347,0,.437-.15.483-.454a3.659,3.659,0,0,0-2.245-3.932,6.272,6.272,0,0,0-6.758,1.729,5.929,5.929,0,0,0-1.394,2.573"/>
      <path id="Caminho_199" data-name="Caminho 199" d="M250.611,41.836h9.948a17.3,17.3,0,0,1-.591,2.522,3.45,3.45,0,0,1-3.485,2.1c-2.187.04-4.378.01-6.651.01-.208,1.055-.422,2.128-.63,3.2q-.906,4.667-1.8,9.336c-.054.283-.086.481-.458.478-2.309-.014-4.619-.007-7-.007.3-1.564.59-3.089.883-4.614,1.113-5.791,2.207-11.586,3.347-17.373.522-2.647,2.328-4.068,4.818-4.744a21.34,21.34,0,0,1,5.635-.336c1.747,0,3.493.058,5.24.07,2.391.016,4.782.012,7.174.019.235,0,.47.026.8.046-.207,1.1-.4,2.141-.6,3.179-.017.1-.043.2-.062.295-.238,1.3-.237,1.266-1.576,1.25-3.938-.048-7.875-.087-11.81-.091-1.71,0-2.373.6-2.72,2.274-.153.745-.291,1.493-.461,2.381"/>
      <path id="Caminho_200" data-name="Caminho 200" d="M352.4,32.488c-.288,1.479-.559,2.871-.827,4.245-1.369,0-2.672-.007-3.974,0a9.3,9.3,0,0,0-1.26.091,2.229,2.229,0,0,0-2.043,1.9c-.072.306-.136.613-.22.994H348.7a3.277,3.277,0,0,1-2.187,3.573,9.168,9.168,0,0,1-2.374.29c-.551.008-.757.169-.858.705-.915,4.85-1.855,9.695-2.789,14.542-.038.2-.084.391-.132.616H333c.18-.967.35-1.905.532-2.842,1.2-6.2,2.3-12.431,3.648-18.6a6.869,6.869,0,0,1,6.421-5.715,54.079,54.079,0,0,1,5.889.028c.941.02,1.879.108,2.91.171"/>
      <path id="Caminho_201" data-name="Caminho 201" d="M306.411,37.852a6.068,6.068,0,0,1,.821-.135c1.909-.009,3.818,0,5.726-.009a1.3,1.3,0,0,1,1.132.544q4.131,5.373,8.286,10.729a4.321,4.321,0,0,1,.323.434,1.072,1.072,0,0,1-.448,1.618c-2.674,1.379-5.356,2.744-8.031,4.122-2.514,1.3-5.042,2.566-7.528,3.915a6.449,6.449,0,0,1-3.3.372c-.125,0-.389-.475-.356-.695.272-1.784.576-3.564.936-5.332a1.351,1.351,0,0,1,.682-.756c2.618-1.358,5.253-2.681,7.883-4.016,1.287-.654,1.338-.892.452-2.056q-3.011-3.956-6.017-7.913c-.167-.219-.313-.455-.564-.822"/>
      <path id="Caminho_202" data-name="Caminho 202" d="M272.316,59.459h-7.325c.1-.557.183-1.081.283-1.6q2.4-12.433,4.805-24.867c.065-.341.191-.479.546-.468,1.264.039,2.534-.009,3.79.107a4.278,4.278,0,0,1,1.777.638,1.858,1.858,0,0,1,.814,2.1q-2.275,11.722-4.54,23.447c-.041.212-.1.422-.15.646"/>
      <path id="Caminho_203" data-name="Caminho 203" d="M384.749,39.908A22.186,22.186,0,0,1,395.2,38.144c-.36,1.873-.709,3.691-1.065,5.541-.982,0-1.923-.016-2.864,0a6.029,6.029,0,0,0-6.022,4.75c-.222,1.1-.419,2.206-.631,3.309q-.727,3.781-1.458,7.561a.868.868,0,0,1-.063.14h-6.783a5.476,5.476,0,0,1,.052-.571q1.965-10.189,3.929-20.38c.07-.368.207-.51.585-.5a4.377,4.377,0,0,1,3.868,1.909"/>
    </g>
    <path id="Caminho_204" data-name="Caminho 204" d="M332.616,48.01a2.222,2.222,0,0,0-2.82-.517c-1.691.733-3.354,1.527-5.029,2.3-.2.091-.395.187-.58.275-.641-2.2-2.48-3.581-3.616-5.485.862-.442,1.711-.885,2.567-1.314q5.266-2.645,10.54-5.274a2.785,2.785,0,0,1,.669-.148,2.223,2.223,0,0,1,.087.684c-.589,3.131-1.2,6.259-1.818,9.482"/>
    <path id="Caminho_205" data-name="Caminho 205" d="M318.926,54.289c1.684-1.112,3.688-1.608,5.169-3.1l6.372,8.227c-.268.031-.413.063-.558.063-2.19,0-4.381.008-6.571-.007a.918.918,0,0,1-.645-.2c-1.275-1.65-2.519-3.323-3.767-4.983"/>
  </g>
</svg>
