<svg xmlns="http://www.w3.org/2000/svg" xmlns:xlink="http://www.w3.org/1999/xlink" width="48.614" height="31.689" viewBox="0 0 48.614 31.689">
  <defs>
    <clipPath id="clip-path">
      <rect id="Retângulo_206" data-name="Retângulo 206" width="48.614" height="31.689" fill="#bb3825"/>
    </clipPath>
  </defs>
  <g id="Grupo_433" data-name="Grupo 433" transform="translate(0 0.001)">
    <g id="Grupo_432" data-name="Grupo 432" transform="translate(0 0)" clip-path="url(#clip-path)">
      <path id="Caminho_187" data-name="Caminho 187" d="M46.789,1.172h0A4.573,4.573,0,0,0,43.768,0H4.845a4.514,4.514,0,0,0-3,1.153h0A5.579,5.579,0,0,0,0,5.375v20.94A5.82,5.82,0,0,0,.728,29.15h0a4.726,4.726,0,0,0,4.116,2.537H43.768a4.652,4.652,0,0,0,3.589-1.764l0,0a5.71,5.71,0,0,0,1.251-3.607V5.375a5.588,5.588,0,0,0-1.824-4.2M44.54,24.981c-.346-.34-.692-.683-1.038-1.027q-.94-.931-1.875-1.87c-.331-.332-.664-.666-.994-1q-1.027-1.038-2.046-2.077l-.755-.767q-1.311-1.339-2.607-2.667l.155-.139c.154-.139.308-.277.462-.417l.244-.22.475-.438c.068-.064.137-.127.2-.19.223-.207.443-.415.662-.622l.1-.1q.281-.266.558-.532c.074-.071.148-.144.223-.215l.437-.425.228-.223.446-.44.19-.188c.207-.207.412-.411.614-.616l.054-.054c.186-.187.369-.374.55-.559l.179-.182c.142-.144.28-.287.417-.428l.186-.191.412-.43c.049-.05.1-.1.148-.154.369-.385.724-.76,1.06-1.119.041-.042.078-.082.117-.124q.2-.211.387-.414l.113-.122c.129-.14.256-.276.379-.41l.084-.09c.3-.325.576-.628.831-.909a.21.21,0,0,1,.022-.025v20c-.209-.2-.419-.405-.627-.611M42.458,3.446c-.5.548-1.077,1.177-1.726,1.868l-.015.015c-.4.431-.836.887-1.288,1.356l-.121.126-.406.421-.14.144q-.406.417-.83.846l-.1.1L37.46,8.7c-.085.086-.171.171-.257.257l-.363.361c-.1.1-.2.2-.3.3l-.48.468-.448.435-.305.291-.385.367-.3.284-.47.438c-.1.087-.191.176-.287.265-.195.177-.388.355-.582.529-.089.081-.179.16-.267.24l-.448.4c-.09.08-.181.159-.271.238-.192.167-.383.334-.575.5l-.112.1h0c-4.233,3.6-6.583,4.707-7.824,5.008a1.144,1.144,0,0,1-.275.03c-.731,0-2.97-.511-7.973-5.229q-.318-.3-.634-.607l-.187-.182c-.158-.154-.316-.309-.473-.467l-.177-.175c-.208-.209-.416-.419-.623-.63l-.052-.053c-.192-.2-.382-.394-.571-.592l-.181-.188q-.233-.244-.463-.49l-.163-.174q-.3-.32-.593-.639l-.094-.1q-.253-.273-.5-.547l-.174-.192-.433-.483c-.048-.055-.1-.111-.148-.166-.183-.207-.366-.414-.544-.617l-.1-.119c-.148-.169-.294-.337-.437-.5l-.155-.18-.4-.468-.112-.129c-.166-.2-.33-.388-.488-.575-.03-.034-.055-.066-.084-.1q-.2-.238-.39-.467l-.11-.131-.416-.5-.01-.012-.438-.533,0-.006q-.211-.257-.4-.494ZM10.007,17.539c-.117.132-.236.262-.353.393q-.778.863-1.567,1.724l-.506.552q-.949,1.031-1.915,2.058l-.129.137q-.9.959-1.824,1.915c-.089.094-.177.185-.266.277V5.812l.043.054.231.283c.038.047.074.091.113.138.118.147.243.3.369.449l.1.123.3.36.138.165.289.346.149.176.31.367.143.167c.124.145.249.292.377.44l.094.11.5.575.053.06.452.515.142.16q.188.214.382.43l.167.187.376.419.175.191c.139.155.282.31.425.465l.124.137q.563.611,1.146,1.225c.05.054.1.107.154.161l.426.443.192.2q.2.207.405.412c.065.068.132.134.2.2l.432.431.123.123-.129.15q-.907,1.032-1.836,2.066m-5.162,10.7a.833.833,0,0,1-.124-.009l.113-.118q1.114-1.145,2.21-2.3c.155-.161.308-.324.462-.486Q8.609,24.168,9.693,23l.031-.033q1.09-1.177,2.152-2.356l.457-.506q1.04-1.156,2.056-2.311l.1-.111c.047.043.092.081.139.123l.336.292c.135.116.268.23.4.341.11.092.218.183.326.272.133.11.264.215.393.32.1.084.208.167.312.247.132.1.262.2.392.3.1.074.2.149.292.22.138.1.273.2.409.3.085.059.17.123.252.18.17.118.336.23.5.34.048.031.095.064.142.095.209.135.416.265.618.385.064.038.127.073.19.11.139.08.278.161.415.235.075.042.15.079.225.118.121.063.241.126.36.183l.233.108c.112.052.224.1.335.149l.229.094c.108.043.215.083.321.121l.22.076c.106.034.209.065.313.095.07.02.14.041.209.058.106.027.209.049.313.07.064.012.127.027.19.038.112.02.223.034.332.047.049.006.1.015.151.018.159.015.314.023.467.023a4.546,4.546,0,0,0,1.1-.131c.139-.033.281-.073.425-.116.048-.014.1-.031.148-.047.1-.031.192-.062.291-.1l.181-.065c.091-.034.182-.069.275-.106l.2-.08c.091-.038.182-.078.275-.119.068-.03.137-.062.2-.094.095-.043.188-.089.284-.135.069-.034.139-.068.208-.1l.3-.156c.069-.037.138-.073.208-.112.108-.059.219-.122.329-.186.064-.036.128-.07.192-.108.148-.086.3-.177.448-.27l.089-.054c.18-.112.363-.229.548-.35.065-.043.132-.089.2-.132.123-.082.246-.165.372-.251.079-.054.161-.111.241-.167.115-.08.228-.159.344-.243.087-.063.177-.127.266-.192.111-.08.223-.163.335-.246l.283-.213.335-.255.3-.23.337-.267c.1-.081.206-.163.31-.247.025-.02.049-.038.074-.059l.03.03q1.332,1.365,2.683,2.746.478.489.963.98.946.964,1.9,1.926c.367.372.735.74,1.1,1.111q.9.907,1.808,1.8.561.558,1.127,1.113c.244.24.486.483.731.722Z" transform="translate(0 0.001)" fill="#bb3825"/>
    </g>
  </g>
</svg>
