<svg id="Grupo_435" data-name="Grupo 435" xmlns="http://www.w3.org/2000/svg" xmlns:xlink="http://www.w3.org/1999/xlink" width="39.933" height="40" viewBox="0 0 39.933 40">
  <defs>
    <clipPath id="clip-path">
      <rect id="Retângulo_207" data-name="Retângulo 207" width="39.933" height="40" fill="none"/>
    </clipPath>
  </defs>
  <g id="Grupo_434" data-name="Grupo 434" transform="translate(0 0)" clip-path="url(#clip-path)">
    <path id="Caminho_188" data-name="Caminho 188" d="M20,0c3.032.086,6.068.11,9.095.276a11.112,11.112,0,0,1,7.332,2.99A10.609,10.609,0,0,1,39.657,10.1c.191,1.917.25,3.854.266,5.781.028,3.464,0,6.928-.049,10.393a21.873,21.873,0,0,1-.523,5.339A10.137,10.137,0,0,1,30.579,39.6a44.076,44.076,0,0,1-6.413.381c-3.494.046-6.989,0-10.483-.044a21.929,21.929,0,0,1-5.249-.512A10.128,10.128,0,0,1,.408,30.687a44.094,44.094,0,0,1-.388-6.5c-.046-3.463-.007-6.928.045-10.392A21.4,21.4,0,0,1,.647,8.23,10.1,10.1,0,0,1,9.314.47,54.17,54.17,0,0,1,15.863.075C17.24.023,18.622.069,20,.07c0-.023,0-.046,0-.07m-.076,36.437c0-.023,0-.046,0-.07,1.625,0,3.25.037,4.873,0,1.592-.039,3.19-.075,4.771-.247a6.775,6.775,0,0,0,6.374-6.034,38.857,38.857,0,0,0,.337-5.266c.053-3.172.05-6.345.017-9.519-.018-1.62-.072-3.25-.245-4.861a6.77,6.77,0,0,0-6.022-6.385,37.708,37.708,0,0,0-5.175-.337c-3.248-.055-6.5-.051-9.747-.018-1.591.017-3.191.074-4.771.248A6.758,6.758,0,0,0,4,9.955a38.5,38.5,0,0,0-.342,5.312c-.046,3.524-.033,7.05.012,10.574a29.047,29.047,0,0,0,.306,4.3A6.56,6.56,0,0,0,8.941,35.8a11.509,11.509,0,0,0,2.624.416c2.786.112,5.574.153,8.362.22" transform="translate(0 0)" fill="#bb3825" fill-rule="evenodd"/>
    <path id="Caminho_189" data-name="Caminho 189" d="M19.05,8.833A10.258,10.258,0,1,1,8.777,19.087,10.251,10.251,0,0,1,19.05,8.833M12.4,19.056a6.634,6.634,0,1,0,6.667-6.6,6.628,6.628,0,0,0-6.667,6.6" transform="translate(0.934 0.94)" fill="#bb3825" fill-rule="evenodd"/>
    <path id="Caminho_190" data-name="Caminho 190" d="M27.916,11.122a2.4,2.4,0,1,1,2.405-2.385,2.381,2.381,0,0,1-2.405,2.385" transform="translate(2.716 0.672)" fill="#bb3825" fill-rule="evenodd"/>
  </g>
</svg>
