<svg xmlns="http://www.w3.org/2000/svg" width="163.85" height="39.237" viewBox="0 0 163.85 39.237">
  <g id="Grupo_460" data-name="Grupo 460" transform="translate(-514.851 -25.599)">
    <path id="Caminho_206" data-name="Caminho 206" d="M612.9,55.626c.023-.23.044-.334.043-.435q-.086-11.954-.182-23.906c0-.415.1-.572.539-.561q1.8.04,3.6,0c.448-.01.583.131.58.58-.016,3.272-.009,6.545-.009,9.818q0,9.964,0,19.93c0,.727,0,.729-.716.73-1.59,0-3.181-.01-4.77.006a.84.84,0,0,1-.819-.463c-3.842-6.279-7.711-12.541-11.538-18.829-.983-1.615-1.839-3.307-2.757-4.961-.089-.16-.205-.306-.356-.528,0,.787-.012,1.472,0,2.159s.082,1.356.083,2.035q.009,9.942,0,19.882c0,.7,0,.7-.689.7-1.152,0-2.3-.012-3.456.006-.4.007-.535-.121-.535-.527q.014-15.02,0-30.04c0-.392.132-.5.506-.5q2.531.024,5.062,0a.762.762,0,0,1,.736.429c2.891,4.735,5.821,9.448,8.683,14.2,1.934,3.214,3.773,6.484,5.656,9.728.085.146.177.291.331.543"/>
    <path id="Caminho_207" data-name="Caminho 207" d="M571.458,36.493l-3.381,3.222c-.12-.149-.232-.275-.33-.412a10.587,10.587,0,0,0-4.779-3.982,12.555,12.555,0,0,0-5.311-.676,7.075,7.075,0,0,0-3.514.988,3.9,3.9,0,0,0-.97,5.923A5.181,5.181,0,0,0,555.881,43c2.579.628,5.18,1.167,7.761,1.791a12.967,12.967,0,0,1,5.611,2.535,6.752,6.752,0,0,1,2.329,4.854c.313,4.43-2.147,7.4-5.873,8.922a18.366,18.366,0,0,1-9.078,1.012,15.551,15.551,0,0,1-8.351-3.356,31.605,31.605,0,0,1-2.591-2.611.451.451,0,0,1,.024-.74c.964-.937,1.911-1.892,2.853-2.851.263-.268.419-.259.633.065a11.212,11.212,0,0,0,6.131,4.675,13.771,13.771,0,0,0,6.439.383,7.263,7.263,0,0,0,2.766-1A3.575,3.575,0,0,0,566.3,53.1a3.42,3.42,0,0,0-2.491-3.054c-1.471-.484-2.995-.809-4.5-1.192-2.32-.591-4.676-1.064-6.952-1.789a7.307,7.307,0,0,1-4.8-4.1,8.172,8.172,0,0,1,.865-8.126,10.038,10.038,0,0,1,5.491-3.878,17.589,17.589,0,0,1,8.985-.346,13.485,13.485,0,0,1,8.354,5.511,3.623,3.623,0,0,1,.211.376"/>
    <path id="Caminho_208" data-name="Caminho 208" d="M514.853,41.108V31.386c0-.65,0-.652.643-.653,1.266,0,2.532.021,3.8-.011.489-.012.635.13.634.627q-.024,9.04,0,18.083a12.577,12.577,0,0,0,.679,4.243,5.73,5.73,0,0,0,4.33,3.859,10.688,10.688,0,0,0,6.13-.278,5.786,5.786,0,0,0,3.63-4.072,14.643,14.643,0,0,0,.53-4.273c.022-5.833.009-11.666.009-17.5,0-.677,0-.678.658-.678,1.282,0,2.564.011,3.845-.007.41-.006.569.109.569.548-.012,6.449.031,12.9-.029,19.347a12.656,12.656,0,0,1-1.858,6.845,9.632,9.632,0,0,1-5.38,4.009,18.8,18.8,0,0,1-8.7.544,11.252,11.252,0,0,1-6.174-2.833,9.682,9.682,0,0,1-2.562-4.114,16.228,16.228,0,0,1-.749-5.165c.007-2.933,0-5.866,0-8.8"/>
    <path id="Caminho_209" data-name="Caminho 209" d="M622.478,61.737c.388-1.03.738-1.963,1.09-2.9q2.2-5.829,4.4-11.657,1.987-5.26,3.98-10.521c.68-1.8,1.372-3.592,2.031-5.4a.692.692,0,0,1,.772-.543c1.655.024,3.31.02,4.965,0a.688.688,0,0,1,.782.521q2.48,6.654,5.007,13.292,2.28,6.029,4.568,12.054c.59,1.557,1.176,3.115,1.771,4.669.13.34.083.524-.332.522-1.492-.007-2.985.011-4.478-.019a.718.718,0,0,1-.532-.369q-1.316-3.518-2.568-7.06a.826.826,0,0,0-.926-.669q-5.865.038-11.731,0a.735.735,0,0,0-.83.591c-.82,2.334-1.688,4.651-2.527,6.978a.7.7,0,0,1-.774.553c-1.362-.028-2.726-.01-4.089-.012-.156,0-.313-.023-.576-.043m14.8-26.356-.15,0c-.138.375-.279.749-.413,1.125q-1.321,3.722-2.641,7.444-.9,2.535-1.8,5.069c-.121.341-.038.517.363.517q4.573-.01,9.149,0c.33,0,.439-.117.32-.449-.476-1.322-.939-2.65-1.406-3.976q-1.212-3.45-2.424-6.9-.5-1.41-.994-2.821"/>
    <path id="Caminho_210" data-name="Caminho 210" d="M672.179,25.664c-.164.6-.322,1.207-.494,1.807q-1.143,4.009-2.292,8.016-.829,2.889-1.671,5.774c-.168.576-.1.684.516.684q4.867,0,9.735,0h.622l.106.138L662.206,64.836l-.1-.052c.2-.722.4-1.446.6-2.167q.938-3.287,1.881-6.571c.671-2.346,1.337-4.693,2.014-7.037.171-.593.15-.645-.466-.645q-4.917,0-9.832,0c-.2,0-.4-.016-.75-.032,5.546-7.648,11.013-15.189,16.48-22.73l.148.065"/>
    <path id="Caminho_211" data-name="Caminho 211" d="M578.137,46.174V31.4c0-.664,0-.665.679-.666,1.3,0,2.6.013,3.893-.007.421-.007.565.128.564.556q-.014,14.97,0,29.94c0,.422-.147.572-.568.566-1.314-.017-2.628,0-3.942-.007-.6,0-.625-.027-.625-.636V46.174"/>
  </g>
</svg>
