<svg id="Layer_2" data-name="Layer 2" xmlns="http://www.w3.org/2000/svg" width="105" height="44.918" viewBox="0 0 105 44.918">
  <g id="Layer_1" data-name="Layer 1">
    <path id="Caminho_212" data-name="Caminho 212" d="M96.255,1.588l10.58,25.756c.125.3.293.586.548,1.082.806-1.962,1.543-3.742,2.276-5.527,1.6-3.915,3.229-7.8,4.786-11.731a2.393,2.393,0,0,0,0-1.608c-1.065-2.729-2.207-5.424-3.32-8.131a13.214,13.214,0,0,1-.431-1.263c1.444-.362,2.182,0,2.768,1.466,3.419,8.584,6.984,17.108,10.5,25.649.125.306.285.6.56,1.177L136.166.127h2.19c-4.613,11.123-9.183,22.143-13.87,33.452-2.9-6.95-5.687-13.633-8.588-20.6-2.889,6.959-5.657,13.646-8.537,20.6C102.662,22.3,98.087,11.272,93.5.217c2.044-.362,2.039-.362,2.755,1.371" transform="translate(-53.188 -0.015)"/>
    <path id="Caminho_213" data-name="Caminho 213" d="M43.313,28.489c-.267-.522-.431-.772-.526-1.035Q37.467,14.52,32.16,1.586c-.7-1.725-.742-1.725-2.7-1.272,1.259,3.04,2.552,6.083,3.721,9.162a2.781,2.781,0,0,1,.026,1.832c-1.535,3.88-3.143,7.761-4.743,11.641L26.2,28.459c-.254-.492-.431-.776-.548-1.082Q20.368,14.5,15.065,1.62C14.354-.1,14.354-.1,12.31.245L26.154,33.611c2.884-6.954,5.652-13.641,8.537-20.6,2.923,6.967,5.687,13.646,8.588,20.6,2.677-6.467,5.32-12.835,7.955-19.186q-.543-1.293-1.078-2.587-3.4,8.259-6.842,16.651" transform="translate(-7.003 -0.034)"/>
    <rect id="Retângulo_216" data-name="Retângulo 216" width="1.927" height="33.577"/>
    <path id="Caminho_214" data-name="Caminho 214" d="M193.1,0c-4.687,11.3-9.278,22.372-13.887,33.478,2.1.2,2.1.2,2.833-1.587.354-.862.694-1.725,1.048-2.587h0l1.983-4.682c2.669-6.515,5.3-12.934,8.024-19.574,2.751,6.687,5.389,13.12,8.075,19.66H190.118a1.332,1.332,0,0,0-1.293.75c-.164.405-.362.862-.548,1.293,5.07-.047,7.842-.043,12.913,0a1.5,1.5,0,0,1,1.078.733c.686,1.479,1.263,3.018,1.875,4.514.7,1.725.7,1.725,2.8,1.457C202.375,22.381,197.8,11.352,193.1,0" transform="translate(-101.945)"/>
    <path id="Caminho_215" data-name="Caminho 215" d="M203.36,57h0" transform="translate(-115.683 -32.425)"/>
    <path id="Caminho_216" data-name="Caminho 216" d="M6.809,96.582H4.95l-.388,1.1H3.7L5.506,92.9h.746l1.815,4.786H7.205Zm-1.625-.673H6.571l-.694-1.992Z" transform="translate(-2.105 -52.847)"/>
    <path id="Caminho_217" data-name="Caminho 217" d="M26.405,96.984a1.6,1.6,0,0,1-.72.513,2.932,2.932,0,0,1-1.048.177,2.022,2.022,0,0,1-1.065-.276,1.807,1.807,0,0,1-.72-.78,2.716,2.716,0,0,1-.259-1.177v-.388a2.557,2.557,0,0,1,.517-1.7,1.815,1.815,0,0,1,1.453-.608,1.9,1.9,0,0,1,1.272.4,1.725,1.725,0,0,1,.569,1.143h-.819a.918.918,0,0,0-1-.862.979.979,0,0,0-.862.4,2.039,2.039,0,0,0-.3,1.186v.366a1.949,1.949,0,0,0,.328,1.207,1.078,1.078,0,0,0,.91.431,1.2,1.2,0,0,0,.91-.289v-.949H24.59v-.629h1.815Z" transform="translate(-12.85 -52.758)"/>
    <path id="Caminho_218" data-name="Caminho 218" d="M44.192,93.849h-1.97v1.474h2.307v.655H41.39V91.193H44.5v.673H42.222V93.19h1.97ZM44.1,90.805v.034h-.642l-.513-.517-.487.513h-.621v-.03l.892-.905h.47Z" transform="translate(-23.545 -51.14)"/>
    <path id="Caminho_219" data-name="Caminho 219" d="M61.867,97.686h-.815l-2.156-3.4v3.4H58.06V92.9H58.9l2.156,3.415V92.9h.828Z" transform="translate(-33.028 -52.847)"/>
    <path id="Caminho_220" data-name="Caminho 220" d="M80.479,96.034a1.725,1.725,0,0,1-.565,1.2,1.919,1.919,0,0,1-1.293.431,1.858,1.858,0,0,1-1.009-.272,1.759,1.759,0,0,1-.673-.772,2.82,2.82,0,0,1-.25-1.164V95a2.811,2.811,0,0,1,.241-1.194,1.815,1.815,0,0,1,.69-.8,1.906,1.906,0,0,1,1.039-.28,1.867,1.867,0,0,1,1.293.431,1.8,1.8,0,0,1,.56,1.22h-.862a1.186,1.186,0,0,0-.3-.746.987.987,0,0,0-.711-.229.961.961,0,0,0-.832.4,1.975,1.975,0,0,0-.3,1.164V95.4a2.1,2.1,0,0,0,.28,1.186.927.927,0,0,0,.815.431,1.078,1.078,0,0,0,.737-.22,1.151,1.151,0,0,0,.315-.737Z" transform="translate(-43.625 -52.747)"/>
    <path id="Caminho_221" data-name="Caminho 221" d="M95.978,97.686H95.15V92.9h.828Z" transform="translate(-54.127 -52.847)"/>
    <path id="Caminho_222" data-name="Caminho 222" d="M109.4,96.582H107.54l-.388,1.112h-.862L108.1,92.9h.75l1.811,4.786H109.8Zm-1.625-.673h1.41l-.694-1.992Z" transform="translate(-60.464 -52.847)"/>
    <path id="Caminho_223" data-name="Caminho 223" d="M137.23,97.685V92.9h1.418a2.2,2.2,0,0,1,1.125.285,1.927,1.927,0,0,1,.763.8,2.552,2.552,0,0,1,.272,1.194v.241a2.544,2.544,0,0,1-.272,1.2,1.923,1.923,0,0,1-.776.8,2.32,2.32,0,0,1-1.151.276Zm.832-4.122v3.449h.548a1.255,1.255,0,0,0,1-.431,1.785,1.785,0,0,0,.358-1.177v-.267a1.824,1.824,0,0,0-.341-1.194,1.2,1.2,0,0,0-.983-.431Z" transform="translate(-78.065 -52.847)"/>
    <path id="Caminho_224" data-name="Caminho 224" d="M156.222,97.686h-.832V92.9h.832Z" transform="translate(-88.395 -52.847)"/>
    <path id="Caminho_225" data-name="Caminho 225" d="M171.01,96.984a1.617,1.617,0,0,1-.724.513,2.932,2.932,0,0,1-1.048.177,2.031,2.031,0,0,1-1.065-.276,1.772,1.772,0,0,1-.716-.78,2.716,2.716,0,0,1-.263-1.177v-.388a2.557,2.557,0,0,1,.517-1.7,1.815,1.815,0,0,1,1.457-.608,1.884,1.884,0,0,1,1.268.4,1.725,1.725,0,0,1,.552,1.143h-.819a.918.918,0,0,0-1-.862.987.987,0,0,0-.862.4,2.039,2.039,0,0,0-.3,1.186v.366a1.949,1.949,0,0,0,.328,1.207,1.082,1.082,0,0,0,.91.431,1.2,1.2,0,0,0,.91-.289v-.949h-.987v-.629h1.819Z" transform="translate(-95.107 -52.758)"/>
    <path id="Caminho_226" data-name="Caminho 226" d="M186.908,97.686h-.828V92.9h.828Z" transform="translate(-105.853 -52.847)"/>
    <path id="Caminho_227" data-name="Caminho 227" d="M201.253,93.573h-1.5v4.113h-.828V93.573H197.45V92.9h3.8Z" transform="translate(-112.321 -52.847)"/>
    <path id="Caminho_228" data-name="Caminho 228" d="M216.759,96.582H214.9l-.392,1.112h-.862l1.815-4.794h.746l1.811,4.786h-.862Zm-1.621-.673h1.388l-.694-1.992Z" transform="translate(-121.537 -52.847)"/>
    <path id="Caminho_229" data-name="Caminho 229" d="M233.7,97.03h2.177v.655H232.86V92.9h.836Z" transform="translate(-132.465 -52.847)"/>
  </g>
</svg>
