<svg id="Marca" xmlns="http://www.w3.org/2000/svg" xmlns:xlink="http://www.w3.org/1999/xlink" width="544" height="53.919" viewBox="0 0 544 53.919">
  <defs>
    <clipPath id="clip-path">
      <rect id="Retângulo_65" data-name="Retângulo 65" width="544" height="53.919" fill="none"/>
    </clipPath>
  </defs>
  <g id="Grupo_126" data-name="Grupo 126" clip-path="url(#clip-path)">
    <path id="Caminho_63" data-name="Caminho 63" d="M132.923,41.089a10.144,10.144,0,0,0,3.978-3.781l-.114,4.3h7.024V10.465h-7.08l.17,4.133a13.5,13.5,0,0,0-4.488-3.724,12.253,12.253,0,0,0-5.478-1.2,15.357,15.357,0,0,0-11.44,4.688A15.857,15.857,0,0,0,110.907,25.9a16.036,16.036,0,0,0,4.644,11.694A15.541,15.541,0,0,0,127.1,42.32a12.594,12.594,0,0,0,5.818-1.231m-14.57-15.305a8.529,8.529,0,0,1,2.635-6.343,8.81,8.81,0,0,1,6.4-2.576,9.091,9.091,0,0,1,9.287,9.259,8.994,8.994,0,0,1-8.949,8.891,9.186,9.186,0,0,1-6.7-2.62,8.864,8.864,0,0,1-2.677-6.611m29-25.4h7.079V41.613h-7.079ZM173.86,9.53A15.213,15.213,0,0,0,162.6,14.386a16.125,16.125,0,0,0-4.742,11.682,15.905,15.905,0,0,0,4.715,11.566,16.3,16.3,0,0,0,20.755,1.954,16.873,16.873,0,0,0,5.96-7.885h-7.9a7.468,7.468,0,0,1-3.03,2.873,9.211,9.211,0,0,1-4.332,1,9.02,9.02,0,0,1-5.99-1.953,7.506,7.506,0,0,1-2.648-5.295H190.34c.017-.208.032-.43.042-.666s.015-.591.015-1.062a16.742,16.742,0,0,0-4.771-12.2A15.824,15.824,0,0,0,173.86,9.53m-8.241,13.054A8.27,8.27,0,0,1,168.692,18a8.4,8.4,0,0,1,5.225-1.784,9.132,9.132,0,0,1,5.549,1.641,8.4,8.4,0,0,1,3.086,4.729ZM209.2,41.669a13.531,13.531,0,0,0,10.786-4.926v.4a10.787,10.787,0,0,1-2.761,7.644,8.981,8.981,0,0,1-6.866,2.975,10.111,10.111,0,0,1-4.928-1.161,7.879,7.879,0,0,1-3.256-3.314h-7.021a14.94,14.94,0,0,0,5.548,7.844,16.152,16.152,0,0,0,9.459,2.661q7.5,0,11.85-4.614t4.346-12.715V10.465h-6.512l.141,4.19a15.111,15.111,0,0,0-5-3.765,14.574,14.574,0,0,0-6.047-1.219A14.951,14.951,0,0,0,197.8,14.3a15.585,15.585,0,0,0-4.516,11.313,15.635,15.635,0,0,0,4.573,11.412A15.28,15.28,0,0,0,209.2,41.669m-5.934-22.794a9.6,9.6,0,0,1,6.9-2.661,9.415,9.415,0,0,1,6.923,2.746,9.31,9.31,0,0,1,2.761,6.881,8.723,8.723,0,0,1-2.818,6.528,9.694,9.694,0,0,1-6.98,2.7,9.431,9.431,0,0,1-9.57-9.573,8.779,8.779,0,0,1,2.789-6.625m33.827,22.738h-7.248V10.465h6.795V14.06A11.248,11.248,0,0,1,240.166,11a9.7,9.7,0,0,1,4.4-.992v6.768q-4.133.34-5.8,2.166t-1.67,6.783Zm11.954-3.979A16.3,16.3,0,0,0,269.8,39.588a16.856,16.856,0,0,0,5.96-7.885h-7.9a7.46,7.46,0,0,1-3.03,2.873,9.211,9.211,0,0,1-4.332,1,9.025,9.025,0,0,1-5.99-1.953,7.506,7.506,0,0,1-2.648-5.295h24.948c.017-.208.032-.43.042-.666s.015-.591.015-1.062A16.742,16.742,0,0,0,272.1,14.4a15.824,15.824,0,0,0-11.765-4.87,15.2,15.2,0,0,0-11.255,4.855,16.117,16.117,0,0,0-4.744,11.682,15.905,15.905,0,0,0,4.715,11.566M255.163,18a8.4,8.4,0,0,1,5.225-1.784,9.139,9.139,0,0,1,5.551,1.641,8.412,8.412,0,0,1,3.086,4.729H252.092A8.268,8.268,0,0,1,255.163,18m60.391-7.481c0,.888.013,1.547.042,1.981s.071.841.129,1.219a14.891,14.891,0,0,0-4.617-2.988,14.326,14.326,0,0,0-5.295-.95,15.3,15.3,0,0,0-11.341,4.744,15.78,15.78,0,0,0-4.657,11.481,16.169,16.169,0,0,0,4.628,11.709,15.294,15.294,0,0,0,11.426,4.772,13.38,13.38,0,0,0,5.366-1.049,13.857,13.857,0,0,0,4.49-3.2l-.17,3.426h7.135V.437h-7.135ZM312.991,32.7a8.691,8.691,0,0,1-6.441,2.592,8.992,8.992,0,0,1-6.613-2.635,8.851,8.851,0,0,1-2.647-6.54,8.877,8.877,0,0,1,2.675-6.527,9.122,9.122,0,0,1,6.725-2.675,8.4,8.4,0,0,1,6.33,2.647,9.263,9.263,0,0,1,2.534,6.669,8.834,8.834,0,0,1-2.564,6.469M342.172,9.583a15.207,15.207,0,0,0-11.256,4.855,16.124,16.124,0,0,0-4.741,11.681,15.91,15.91,0,0,0,4.713,11.567,16.3,16.3,0,0,0,20.757,1.953,16.86,16.86,0,0,0,5.96-7.885h-7.9a7.488,7.488,0,0,1-3.03,2.874,9.213,9.213,0,0,1-4.333,1,9.019,9.019,0,0,1-5.99-1.954,7.507,7.507,0,0,1-2.647-5.295h24.946c.019-.208.033-.429.043-.666s.015-.589.015-1.061a16.74,16.74,0,0,0-4.771-12.2,15.825,15.825,0,0,0-11.767-4.87m-8.24,13.054a8.278,8.278,0,0,1,3.073-4.587,8.392,8.392,0,0,1,5.225-1.784,9.126,9.126,0,0,1,5.549,1.642,8.389,8.389,0,0,1,3.086,4.729Zm64.77-3.753a31.12,31.12,0,0,1,.481,6.3v16.48h-7.305V27.874q0-6.313-1.459-8.607t-5-2.293a5.635,5.635,0,0,0-5.183,2.549q-1.585,2.546-1.584,8.805V41.664H371.63V10.518h7.08v3.537a10.568,10.568,0,0,1,3.653-3.142,10.383,10.383,0,0,1,4.7-1.019,12.734,12.734,0,0,1,5.848,1.275,10.846,10.846,0,0,1,4.176,3.821,11.643,11.643,0,0,1,1.614,3.894m20.078-9.3a15.484,15.484,0,0,0-11.4,4.812,15.826,15.826,0,0,0-4.772,11.554,16.114,16.114,0,0,0,4.715,11.737,15.594,15.594,0,0,0,11.568,4.8A15.778,15.778,0,0,0,430.6,37.7a16.306,16.306,0,0,0,4.713-11.921,15.534,15.534,0,0,0-4.786-11.455A16.043,16.043,0,0,0,418.78,9.583M425.39,32.7a8.34,8.34,0,0,1-6.44,2.592,8.5,8.5,0,0,1-6.414-2.549,9.24,9.24,0,0,1-2.448-6.682,9.534,9.534,0,0,1,2.407-6.74,8.027,8.027,0,0,1,6.173-2.605,8.961,8.961,0,0,1,6.555,2.521,8.7,8.7,0,0,1,2.562,6.484,9.887,9.887,0,0,1-2.395,6.98m75.272,6.67a.959.959,0,0,1-.959.96H483.232a.96.96,0,0,1,0-1.919H499.7a.958.958,0,0,1,.959.959m-5.613,3.717a.96.96,0,0,1-.959.959H478.352a.96.96,0,1,1,0-1.919h15.737a.96.96,0,0,1,.959.96m-20.005,0a.96.96,0,0,1-.96.959h-9.5a.96.96,0,0,1,0-1.919h9.5a.96.96,0,0,1,.96.96m16.781,3.7a.96.96,0,0,1-.96.96H469.4a.96.96,0,0,1,0-1.921h21.46a.96.96,0,0,1,.96.96m-15.552-7.418a.96.96,0,0,1-.959.96H467.1a.96.96,0,1,1,0-1.921h8.215a.96.96,0,0,1,.959.96m-11.893.02a.96.96,0,0,1-.959.96h-2.8a.96.96,0,1,1,0-1.919h2.8a.96.96,0,0,1,.959.959m41.978,0a.96.96,0,0,1-.959.96h-1.828a.96.96,0,0,1,0-1.919H505.4a.96.96,0,0,1,.959.959m-10.524-12.7A16.738,16.738,0,0,1,488.8,40.327H469.314a16.912,16.912,0,0,1-2.2-1.922h5.96a.96.96,0,0,0,0-1.919h-7.6a16.763,16.763,0,1,1,30.359-9.794m-38.75,12.676a.96.96,0,0,1-.96.96h-3.738l0,.005h-6.752l-.007-.016h-4.333a.96.96,0,0,1,0-1.921h3.6l-10.624-27.88H442l7.247,20.7,7.477-20.7h7.531L453.9,36.5h-3.8a.96.96,0,1,0,0,1.921h6.081a.954.954,0,0,1,.905.948" transform="translate(37.642 0.131)" fill="#dcb450"/>
    <path id="Caminho_64" data-name="Caminho 64" d="M24.318,6.37a12.413,12.413,0,0,0-3.977-4.586,10.539,10.539,0,0,0-3.7-1.359A34.327,34.327,0,0,0,10.516,0H0V41.228H8.391V25.4h2.945q6.624,0,10.533-3.553A12.144,12.144,0,0,0,25.777,12.4,12.983,12.983,0,0,0,24.318,6.37m-8.691,10.6a8.022,8.022,0,0,1-5.169,1.459H8.391V7.248H10.4a8.394,8.394,0,0,1,5.281,1.388,5.006,5.006,0,0,1,1.74,4.164,5.067,5.067,0,0,1-1.8,4.175" transform="translate(0 0)" fill="#eee1d1"/>
    <path id="Caminho_65" data-name="Caminho 65" d="M47.389,11.569A16.058,16.058,0,0,0,35.638,6.828a15.487,15.487,0,0,0-11.4,4.814,15.83,15.83,0,0,0-4.771,11.552,16.11,16.11,0,0,0,4.716,11.737,15.583,15.583,0,0,0,11.566,4.8A15.776,15.776,0,0,0,47.46,34.945a16.3,16.3,0,0,0,4.715-11.921,15.544,15.544,0,0,0-4.786-11.455M42.25,29.947a8.345,8.345,0,0,1-6.441,2.592,8.495,8.495,0,0,1-6.414-2.548,9.243,9.243,0,0,1-2.448-6.684,9.545,9.545,0,0,1,2.406-6.74,8.028,8.028,0,0,1,6.173-2.605,8.959,8.959,0,0,1,6.555,2.521,8.7,8.7,0,0,1,2.564,6.484,9.881,9.881,0,0,1-2.394,6.98" transform="translate(6.608 2.318)" fill="#eee1d1"/>
    <path id="Caminho_66" data-name="Caminho 66" d="M52.83,38.789H45.58V7.641h6.8v3.595A11.233,11.233,0,0,1,55.9,8.179a9.683,9.683,0,0,1,4.4-.991v6.767q-4.137.342-5.8,2.166T52.83,22.9Z" transform="translate(15.47 2.44)" fill="#eee1d1"/>
    <path id="Caminho_67" data-name="Caminho 67" d="M63.655,16.537H58.9V10.081h4.756V0H70.9v10.08h4.87v6.456H70.9V41.227H63.655Z" transform="translate(19.99 0.001)" fill="#eee1d1"/>
    <path id="Caminho_68" data-name="Caminho 68" d="M100.2,11.569A16.059,16.059,0,0,0,88.448,6.828a15.486,15.486,0,0,0-11.4,4.814A15.83,15.83,0,0,0,72.28,23.194,16.11,16.11,0,0,0,77,34.931a15.583,15.583,0,0,0,11.566,4.8,15.774,15.774,0,0,0,11.709-4.787,16.3,16.3,0,0,0,4.715-11.921A15.544,15.544,0,0,0,100.2,11.569M95.061,29.947a8.347,8.347,0,0,1-6.441,2.592A8.495,8.495,0,0,1,82.2,29.992a9.238,9.238,0,0,1-2.448-6.684,9.545,9.545,0,0,1,2.406-6.74,8.028,8.028,0,0,1,6.173-2.605,8.959,8.959,0,0,1,6.555,2.521,8.7,8.7,0,0,1,2.562,6.484,9.881,9.881,0,0,1-2.392,6.98" transform="translate(24.532 2.318)" fill="#eee1d1"/>
  </g>
</svg>
